<?xml version="1.0" encoding="utf-8"?>
<!-- Generator: Adobe Illustrator 24.3.0, SVG Export Plug-In . SVG Version: 6.00 Build 0)  -->
<svg version="1.1" id="Layer_1" xmlns="http://www.w3.org/2000/svg" xmlns:xlink="http://www.w3.org/1999/xlink" x="0px" y="0px"
	 viewBox="0 0 283.5 283.5" style="enable-background:new 0 0 283.5 283.5;" xml:space="preserve">
<style type="text/css">
	.st0{fill:#312E59;}
</style>
<path class="st0" d="M150.7,122.7l51,72.4c0.3,0.5,0.9,0.8,1.5,0.8h59c1,0,1.8-0.8,1.8-1.8L264.1,47c0-1-0.8-1.8-1.8-1.8h-54.6
	c-0.5,0-1,0.2-1.3,0.6l-57.2,62.6c-0.7,0.8-1.9,0.8-2.6,0.1l-62-62.7c-0.3-0.3-0.8-0.5-1.3-0.5H21.1c-1,0-1.8,0.8-1.8,1.8v158
	c0,0.6,0.3,1.1,0.7,1.4l65,48.1c0.9,0.7,2.2,0.3,2.7-0.7L147.7,123C148.2,121.8,149.9,121.6,150.7,122.7z"/>
</svg>
